<svg width="9" height="10" viewBox="0 0 9 10" fill="none" xmlns="http://www.w3.org/2000/svg">
<circle cx="0.646416" cy="0.961113" r="0.646416" fill="#61481C"/>
<path d="M6.79587 7.11056C6.79587 7.79632 6.52345 8.454 6.03854 8.9389C5.55364 9.42381 4.89597 9.69623 4.2102 9.69623C3.52444 9.69623 2.86677 9.42381 2.38187 8.9389C1.89696 8.454 1.62454 7.79633 1.62454 7.11057L4.2102 7.11056H6.79587Z" fill="#61481C"/>
<path d="M8.5 0.646416C8.5 1.00342 8.21059 1.29283 7.85358 1.29283C7.49658 1.29283 7.20717 1.00342 7.20717 0.646416C7.20717 0.28941 7.49658 0 7.85358 0C8.21059 0 8.5 0.28941 8.5 0.646416Z" fill="#61481C"/>
</svg>
