<svg width="50" height="52" viewBox="0 0 50 52" fill="none" xmlns="http://www.w3.org/2000/svg">
<path d="M25.0012 16.3059C19.8349 16.3059 15.6258 20.5973 15.6258 25.8645C15.6258 31.1317 19.8349 35.4231 25.0012 35.4231C30.1675 35.4231 34.3767 31.1317 34.3767 25.8645C34.3767 20.5973 30.1675 16.3059 25.0012 16.3059ZM49.0649 24.3212L39.8164 19.6116L43.088 9.61495C43.5275 8.26082 42.2677 6.97639 40.9493 7.4344L31.1441 10.7699L26.515 1.33086C25.8899 0.056381 24.1125 0.056381 23.4875 1.33086L18.8681 10.76L9.05317 7.42444C7.72498 6.97639 6.46516 8.26082 6.9144 9.60499L10.186 19.6017L0.937546 24.3212C-0.312515 24.9584 -0.312515 26.7706 0.937546 27.4078L10.186 32.1174L6.9144 42.124C6.47492 43.4782 7.73475 44.7626 9.05317 44.3046L18.8583 40.969L23.4777 50.3982C24.1027 51.6727 25.8802 51.6727 26.5052 50.3982L31.1246 40.969L40.9297 44.3046C42.2579 44.7526 43.5177 43.4682 43.0685 42.124L39.7969 32.1274L49.0453 27.4178C50.3149 26.7706 50.3149 24.9584 49.0649 24.3212ZM33.8395 34.8755C28.9662 39.8439 21.0362 39.8439 16.1629 34.8755C11.2896 29.907 11.2896 21.822 16.1629 16.8536C21.0362 11.8851 28.9662 11.8851 33.8395 16.8536C38.7128 21.822 38.7128 29.907 33.8395 34.8755Z" fill="#FED50D"/>
</svg>
